<?xml version="1.0" standalone="no"?>
<!DOCTYPE svg PUBLIC "-//W3C//DTD SVG 20010904//EN"
 "http://www.w3.org/TR/2001/REC-SVG-20010904/DTD/svg10.dtd">
<svg version="1.0" xmlns="http://www.w3.org/2000/svg"
 width="700.000000pt" height="700.000000pt" viewBox="0 0 700.000000 700.000000"
 preserveAspectRatio="xMidYMid meet">
<metadata>
Created by potrace 1.14, written by Peter Selinger 2001-2017
</metadata>
<g transform="translate(0.000000,700.000000) scale(0.100000,-0.100000)"
fill="#000000" stroke="none">
<path d="M1571 5954 c-281 -71 -489 -296 -540 -586 -5 -31 -10 -200 -11 -377
0 -253 2 -321 12 -322 65 -5 271 -2 275 4 3 5 5 143 5 308 1 164 5 322 10 351
29 161 159 298 325 342 36 10 135 14 344 14 162 0 305 1 319 1 l25 1 -1 137
c-1 76 -2 142 -3 146 -1 4 -151 7 -333 6 -315 -1 -338 -2 -427 -25z"/>
<path d="M4669 5973 c-4 -39 -3 -267 2 -275 4 -7 112 -10 300 -10 315 1 380
-6 466 -43 68 -31 170 -131 202 -200 45 -96 47 -117 49 -449 1 -188 5 -322 11
-325 7 -5 228 -6 274 -2 5 1 7 160 5 354 -4 328 -6 357 -27 427 -70 237 -249
419 -489 498 -75 25 -85 25 -434 29 -197 3 -358 1 -359 -4z"/>
<path d="M2765 2620 l-99 -99 35 -31 c119 -109 291 -211 434 -259 150 -49 360
-68 520 -48 222 29 455 138 630 295 l48 43 -99 100 c-54 54 -102 99 -107 99
-4 0 -36 -24 -70 -53 -34 -29 -87 -67 -117 -84 -52 -30 -210 -96 -210 -87 0 2
-11 -1 -24 -6 -31 -11 -124 -23 -201 -24 -54 -2 -82 1 -192 19 -112 17 -265
94 -375 187 -31 26 -60 48 -65 48 -5 0 -53 -45 -108 -100z"/>
<path d="M1028 2329 c-10 -6 -6 -677 4 -714 3 -11 11 -40 18 -65 62 -234 262
-432 505 -502 77 -22 95 -23 429 -23 l350 0 0 142 c1 136 0 143 -19 143 -11 0
-148 1 -305 1 -305 0 -364 7 -450 47 -71 33 -169 131 -202 202 -42 89 -47 144
-45 468 1 195 -2 302 -8 303 -42 4 -269 3 -277 -2z"/>
<path d="M5694 2328 c-3 -4 -5 -148 -6 -320 -2 -334 -6 -369 -53 -462 -42 -82
-116 -152 -207 -195 -72 -34 -131 -39 -450 -39 -163 0 -300 -2 -305 -5 -4 -3
-8 -67 -7 -144 l0 -138 335 0 c360 0 383 2 490 39 192 67 351 217 431 407 51
121 56 174 58 531 l1 328 -23 1 c-102 5 -261 3 -264 -3z"/>
</g>
</svg>
